PathFileType	4	(X/Y/Z)	Run_200 01
DataRate	CameraRate	NumFrames	NumMarkers	Units	OrigDataRate	OrigDataStartFrame	OrigNumFrames
120	120	5	42	mm	120	209	128
Frame#	Time	LASI			RASI			LPSI			RPSI			RTH1			RTH2			RTH3			LTH1			LTH2			LTH3			RTB1			RTB2			RTB3			LTB1			LTB2			LTB3			RCAL			RTOE			RMT5			LCAL			LTOE			LMT5			LACR			RACR			CLAV			C7			RUA1			RUA2			RUA3			RLEL			LUA1			LUA2			LUA3			LLEL			RFAsuperior			RFAradius			RFAulna			LFAsuperior			LFAradius			LFAulna			LMEL			RMEL			
		X1	Y1	Z1	X2	Y2	Z2	X3	Y3	Z3	X4	Y4	Z4	X5	Y5	Z5	X6	Y6	Z6	X7	Y7	Z7	X8	Y8	Z8	X9	Y9	Z9	X10	Y10	Z10	X11	Y11	Z11	X12	Y12	Z12	X13	Y13	Z13	X14	Y14	Z14	X15	Y15	Z15	X16	Y16	Z16	X17	Y17	Z17	X18	Y18	Z18	X19	Y19	Z19	X20	Y20	Z20	X21	Y21	Z21	X22	Y22	Z22	X23	Y23	Z23	X24	Y24	Z24	X25	Y25	Z25	X26	Y26	Z26	X27	Y27	Z27	X28	Y28	Z28	X29	Y29	Z29	X30	Y30	Z30	X31	Y31	Z31	X32	Y32	Z32	X33	Y33	Z33	X34	Y34	Z34	X35	Y35	Z35	X36	Y36	Z36	X37	Y37	Z37	X38	Y38	Z38	X39	Y39	Z39	X40	Y40	Z40	X41	Y41	Z41	X42	Y42	Z42	

206	1.875	1072.247025	966.200276	-426.545851	1063.172697	974.544124	-186.586099	901.922443	1003.899568	-369.379776	894.768904	1007.761442	-270.378856	1004.671199	813.5894060000001	-139.004767	1081.783353	673.054324	-172.157656	1025.15324	576.663596	-191.553739	1050.603111	798.544611	-486.061687	1171.894838	744.633042	-470.61594	1160.244587	608.449626	-461.892771	1031.845958	344.296056	-267.162517	961.880028	313.467371	-206.800421	926.130304	197.261598	-273.228394	1161.24455	406.527426	-406.143915	1055.842476	384.923004	-450.631505	996.453691	302.847688	-389.844408	745.533127	100.8258	-287.834673	954.6262840000001	74.75667300000001	-318.195736	942.416664	46.368413	-210.579765	823.16333	316.472601	-372.393732	942.302017	146.36714	-352.587272	910.447298	140.082492	-456.447367	1037.401355	1457.184381	-481.698844	1065.32267	1431.697866	-113.765364	1125.062655	1396.313586	-282.509597	1011.243503	1484.443639	-302.627799	1041.047491	1342.339218	-71.466992	1044.682532	1253.027338	-89.314804	958.794752	1253.181233	-67.022071	933.700377	1142.82446	-43.916086	985.898411	1393.572093	-529.008824	917.661258	1355.885027	-491.00305	943.719962	1298.113329	-547.787383	840.327188	1230.178463	-569.625598	1017.888227	1094.57725	-39.209742	1136.217449	963.187489	-80.846706	1079.608167	922.216721	-83.897143	907.898908	1176.646997	-573.230036	1037.134865	1040.67983	-504.556872	983.9334229999999	1005.696973	-531.342138	821.374655	1228.944871	-498.790187	911.874215	1140.310027	-107.730766	
207	1.883333	1072.18936	971.2434950000001	-425.93775	1063.852096	978.88317	-186.007612	901.990821	1009.705606	-369.059914	895.776961	1013.204365	-269.39518	1000.809664	817.609671	-139.64329	1074.24554	675.480247	-173.478867	1014.475199	580.672507	-192.264257	1051.338037	804.82874	-486.808253	1173.394452	753.142453	-470.955685	1164.25996	616.9734	-462.990888	1017.057395	347.379531	-267.360315	947.085055	316.949692	-206.950177	911.2651	200.507014	-273.06295	1172.129877	412.368155	-405.98207	1067.800966	385.151806	-450.698783	1012.57973	300.055608	-389.2116	730.2323239999999	105.682687	-287.072435	938.384334	75.547929	-318.623924	925.416227	45.944552	-211.413876	838.756725	303.922585	-372.442291	967.6014709999999	140.91901	-352.769693	936.558775	132.651254	-455.615057	1035.203776	1463.013335	-481.924514	1067.87429	1438.14406	-114.892379	1125.461907	1402.183138	-284.339887	1011.524414	1489.805518	-303.03795	1044.267632	1348.881149	-72.186705	1048.401329	1259.629862	-89.978841	962.679887	1259.373147	-66.203211	938.476099	1148.60152	-43.105193	982.365721	1400.63191	-528.645201	914.397251	1363.619162	-489.976748	938.909327	1305.543261	-547.123485	834.163061	1238.94485	-567.22077	1024.387718	1103.283341	-39.716875	1147.895896	978.251888	-84.75891300000001	1093.316591	935.028754	-87.275732	901.251154	1185.330986	-572.582068	1031.562949	1049.057381	-507.439435	977.9293709999999	1014.213053	-532.89562	816.910027	1237.731629	-496.083522	916.567965	1146.138427	-107.179604	
208	1.891667	1072.564565	977.1525810000001	-425.642986	1064.553703	983.493384	-185.97419	902.171028	1016.120269	-368.709966	896.936112	1018.957434	-268.881557	997.077307	822.1126410000001	-140.478784	1067.228979	678.617204	-174.908563	1004.327963	585.417264	-192.819959	1052.639377	811.9943950000001	-487.809097	1174.797706	761.784262	-470.893219	1167.546769	625.579555	-463.982126	1002.629314	351.421485	-267.410127	932.707436	321.326512	-206.891974	896.750809	204.575883	-272.919799	1182.449854	418.130556	-405.484708	1079.584145	385.02246	-450.721006	1028.829008	297.100966	-388.428297	715.500546	111.669767	-286.36194	922.402286	76.19713900000001	-319.109939	908.456216	45.154643	-212.783704	855.085977	290.837313	-372.502045	993.435864	135.818813	-352.612528	963.49075	125.335471	-454.394746	1033.13099	1469.433061	-482.115688	1070.393897	1444.995973	-116.040436	1125.965944	1408.58504	-286.197712	1011.897709	1495.604607	-303.494444	1047.343022	1355.919737	-72.951464	1051.869072	1266.676181	-90.64330200000001	966.410109	1266.137128	-65.290069	943.05217	1155.037238	-42.180021	979.030212	1408.337431	-528.3521919999999	911.406943	1371.760963	-489.007253	934.400755	1313.630701	-546.570829	828.514424	1248.294721	-565.053565	1030.434486	1112.698898	-40.248052	1158.415268	993.858977	-89.079128	1105.928357	948.684316	-90.535752	895.143686	1194.747694	-571.916014	1026.528519	1058.505224	-509.854587	972.73407	1023.589668	-534.26998	812.648146	1247.046202	-493.637505	921.172586	1152.622204	-106.417333	
209	1.9	1073.286259	983.892081	-425.677859	1065.174848	988.418118	-186.331405	902.447676	1023.023701	-368.337733	898.0513989999999	1025.073312	-268.727798	993.791966	827.142814	-141.332547	1060.674046	682.365693	-176.280273	994.747484	590.8071660000001	-193.110062	1054.402096	820.007952	-488.976264	1176.066306	770.423015	-470.685904	1169.876652	634.005325	-464.660331	988.677531	356.321835	-267.178195	918.811836	326.518669	-206.540074	882.6844160000001	209.420442	-272.609559	1192.099877	423.895047	-404.907797	1091.254682	384.516007	-450.727331	1045.311958	294.069404	-387.939128	701.4673780000001	118.741368	-285.812135	906.7281819999999	76.692545	-319.489573	891.715266	44.316426	-214.211399	872.23364	277.377804	-372.549903	1019.793168	131.256409	-351.919266	991.0858930000001	118.267457	-452.886146	1031.23986	1476.293001	-482.251877	1072.914564	1452.12476	-117.219827	1126.550112	1415.376579	-288.02129	1012.327955	1501.68245	-303.940131	1050.317059	1363.313375	-73.754439	1055.122422	1274.001113	-91.32171200000001	970.020661	1273.355073	-64.306568	947.391191	1162.032865	-41.174577	975.958621	1416.522612	-528.103631	908.6616770000001	1380.340136	-488.008547	930.268315	1322.217566	-546.103023	823.422656	1258.040547	-563.058347	1036.054282	1122.643248	-40.84238	1167.804876	1009.778804	-93.678578	1117.467847	962.8024349999999	-93.58451100000001	889.643294	1204.646837	-571.215588	1022.012054	1068.584398	-511.690521	968.220808	1033.448747	-535.448956	808.627269	1256.764967	-491.398647	925.589145	1159.666472	-105.529388	
210	1.908333	1074.099073	991.165474	-425.829325	1065.715467	993.702029	-186.741407	902.849637	1030.242025	-367.993523	899.059873	1031.561014	-268.628931	991.197017	832.680742	-142.024112	1054.502375	686.618117	-177.448409	985.741876	596.748089	-193.101715	1056.419634	828.715338	-490.169292	1177.106551	778.939903	-470.667362	1171.028287	642.002299	-464.87359	975.397352	361.893147	-266.570873	905.488391	332.382984	-205.907388	869.2578109999999	214.922558	-271.995746	1200.93626	429.666163	-404.566323	1102.815711	383.694231	-450.746012	1062.03924	291.038915	-387.859701	688.255776	126.780082	-285.428347	891.40822	77.113111	-319.624237	875.317776	43.854755	-215.140073	890.284115	263.726316	-372.549513	1046.604447	127.35022	-350.736321	1019.130438	111.539586	-451.237135	1029.590502	1483.421099	-482.329696	1075.44104	1459.409977	-118.488148	1127.184171	1422.4027	-289.770483	1012.800111	1507.924	-304.357084	1053.252945	1370.928061	-74.587621	1058.184891	1281.477796	-92.056416	973.537246	1280.942793	-63.272909	951.459594	1169.479939	-40.116098	973.226633	1425.037653	-527.856755	906.185772	1389.367164	-486.995907	926.557258	1331.120681	-545.705462	818.889832	1267.989583	-561.192754	1041.270491	1132.96759	-41.532845	1176.106003	1025.82708	-98.354754	1127.954222	977.0675639999999	-96.390135	884.753099	1214.782506	-570.5144330000001	1018.032603	1078.95882	-513.046304	964.301051	1043.505034	-536.401597	804.935187	1266.768015	-489.336549	929.593527	1167.123309	-104.551808	
